<svg width="16" height="16" viewBox="0 0 16 16" fill="none" xmlns="http://www.w3.org/2000/svg">
<path d="M10.5701 7.28998L7.14341 10.7167L5.43008 9.00331M1.14673 12.2587V7.67732C1.14673 7.21956 1.14673 6.99057 1.20239 6.77756C1.25171 6.5888 1.3333 6.41017 1.44288 6.24875C1.56653 6.0666 1.73838 5.91555 2.08287 5.61412L6.19625 2.01491C6.83488 1.45611 7.15422 1.17669 7.51386 1.07034C7.83099 0.976554 8.16901 0.976554 8.48614 1.07034C8.84605 1.17677 9.16585 1.45646 9.80545 2.0161L13.9175 5.61412C14.262 5.91555 14.4339 6.0666 14.5575 6.24875C14.6671 6.41017 14.7481 6.5888 14.7974 6.77756C14.853 6.99057 14.8534 7.21957 14.8534 7.67732V12.2617C14.8534 13.2194 14.8534 13.6988 14.6669 14.0649C14.5026 14.3873 14.2398 14.6492 13.9174 14.8134C13.5513 15 13.0724 15 12.1147 15H3.88542C2.92774 15 2.44818 15 2.08204 14.8134C1.75965 14.6492 1.49773 14.3873 1.33347 14.0649C1.14673 13.6984 1.14673 13.2183 1.14673 12.2587Z" stroke="white" stroke-width="1.4" stroke-linecap="round" stroke-linejoin="round"/>
</svg>
